<svg 
 xmlns="http://www.w3.org/2000/svg"
 xmlns:xlink="http://www.w3.org/1999/xlink"
 width="651.5px" height="652.5px">
<path fill-rule="evenodd"  stroke="rgb(0, 0, 0)" stroke-width="1px" stroke-linecap="butt" stroke-linejoin="miter" fill="rgb(255, 255, 255)"
 d="M196.767,1.962 C212.827,1.953 223.089,9.765 237.937,7.277 C249.760,5.296 264.554,1.114 279.107,3.291 C291.646,5.727 304.189,8.163 316.728,10.598 C321.841,9.475 326.799,3.724 334.474,4.620 C339.442,5.948 344.412,7.277 349.381,8.605 C355.993,7.492 369.530,2.468 374.934,2.627 C385.803,2.945 395.634,6.986 406.877,6.613 C419.617,6.189 432.426,3.093 445.208,5.284 C453.961,4.841 462.718,4.398 471.471,3.955 C478.569,4.841 485.669,5.727 492.766,6.613 C498.681,5.284 504.597,3.955 510.512,2.627 C551.755,9.224 599.941,10.139 646.090,7.277 C648.392,31.999 646.941,61.666 643.250,85.001 C644.907,96.072 646.563,107.146 648.219,118.217 C646.879,125.918 644.406,135.468 645.380,144.789 C646.090,148.110 646.800,151.432 647.509,154.754 C645.617,162.282 643.723,169.812 641.831,177.340 C643.960,187.525 646.090,197.713 648.219,207.898 C647.273,212.548 646.326,217.199 645.380,221.849 C646.090,230.705 646.800,239.565 647.509,248.421 C645.929,259.306 642.165,270.744 641.121,280.308 C640.269,288.117 647.670,290.185 647.509,296.916 C645.599,376.857 638.885,462.613 649.639,540.053 C647.510,550.459 645.380,560.869 643.250,571.275 C643.724,577.032 644.197,582.791 644.670,588.547 C642.017,604.519 643.612,627.320 646.800,645.014 C637.131,646.460 627.892,650.828 615.567,649.000 C607.760,647.450 599.950,645.899 592.143,644.349 C547.729,648.154 500.003,647.209 460.824,642.357 C449.985,641.014 433.327,646.710 423.913,648.335 C410.573,650.638 390.512,644.866 379.903,643.021 C366.443,640.679 355.870,650.771 341.572,649.000 C301.503,644.034 257.620,650.476 222.321,643.685 C214.024,642.089 207.009,646.585 201.026,647.671 C193.852,648.973 190.896,645.248 186.120,644.349 C174.965,642.250 170.104,650.279 160.566,648.335 C154.651,646.785 148.735,645.235 142.820,643.685 C134.539,645.014 126.256,646.343 117.976,647.671 C106.278,649.176 92.433,646.972 82.484,649.000 C74.440,648.557 66.394,648.114 58.350,647.671 C44.179,650.352 17.131,651.540 3.693,647.007 C8.638,619.161 5.620,590.842 3.693,565.961 C5.586,555.554 7.479,545.145 9.372,534.738 C8.859,531.646 5.888,528.286 5.113,526.102 C1.857,516.928 5.787,502.134 7.242,496.208 C9.643,486.435 6.889,473.928 7.952,465.650 C7.479,461.222 7.006,456.792 6.532,452.364 C6.671,438.423 7.015,422.034 9.372,408.520 C7.479,395.235 5.586,381.946 3.693,368.661 C6.059,362.462 8.426,356.260 10.791,350.060 C8.899,337.883 7.005,325.701 5.113,313.523 C3.774,305.129 9.473,294.741 7.952,283.630 C6.349,271.922 7.074,255.709 5.113,244.435 C5.349,238.900 5.586,233.363 5.823,227.828 C4.853,223.708 1.871,218.195 2.983,211.884 C4.403,205.020 5.823,198.154 7.242,191.291 C6.296,180.663 5.349,170.032 4.403,159.404 C5.897,151.928 12.636,144.720 10.082,134.824 C7.243,129.067 4.403,123.309 1.564,117.552 C3.220,112.238 4.876,106.923 6.532,101.609 C8.791,88.988 1.141,79.007 2.983,66.400 C5.585,48.595 10.921,23.279 8.662,4.620 C8.899,4.620 9.135,4.620 9.372,4.620 C17.297,7.075 32.057,10.515 40.604,8.605 C47.129,7.148 52.481,1.487 61.899,3.291 C80.901,6.931 120.993,7.836 139.981,4.620 C158.805,1.431 180.004,8.534 196.767,1.962 Z"/>
</svg>