<svg width="19" height="17" viewBox="0 0 19 17" fill="none" xmlns="http://www.w3.org/2000/svg">
<path fill-rule="evenodd" clip-rule="evenodd" d="M16.6411 8.1893C17.3667 7.42273 17.7698 6.38776 17.7617 5.31206C17.7536 4.23637 17.335 3.20808 16.598 2.45339C16.233 2.07971 15.8008 1.78445 15.3262 1.58447C14.8515 1.38449 14.3436 1.2837 13.8315 1.28786C12.7972 1.29627 11.8085 1.73165 11.0829 2.49822C10.8858 2.70315 10.6354 2.95469 10.3317 3.25284L9.48705 4.08003L8.64244 3.25284C8.33799 2.95398 8.08724 2.70244 7.8902 2.49822C7.15885 1.7376 6.16693 1.31028 5.13265 1.31028C4.09838 1.31028 3.10646 1.7376 2.37511 2.49822C0.868572 4.06615 0.851126 6.60109 2.31969 8.17649L9.48705 15.6308L16.6411 8.1893ZM1.50382 1.59312C1.98032 1.09741 2.54605 0.704181 3.16869 0.435897C3.79133 0.167614 4.45869 0.0295288 5.13265 0.0295288C5.80662 0.0295288 6.47398 0.167614 7.09662 0.435897C7.71926 0.704181 8.28499 1.09741 8.76149 1.59312C8.94826 1.78808 9.19012 2.03073 9.48705 2.32104C9.78261 2.03073 10.0245 1.78773 10.2126 1.59205C11.1675 0.583586 12.4686 0.0109648 13.8294 0.000155831C15.1903 -0.0106531 16.4996 0.541235 17.4692 1.53441C18.4389 2.52759 18.9895 3.8807 18.9998 5.29607C19.0102 6.71144 18.4796 8.07314 17.5247 9.0816L10.2126 16.6875C10.0202 16.8876 9.75917 17 9.48705 17C9.21492 17 8.95394 16.8876 8.76149 16.6875L1.44738 9.08053C0.509425 8.07446 -0.010403 6.72505 0.000157822 5.32373C0.0107186 3.92241 0.550821 2.58164 1.50382 1.59098V1.59312Z" fill="#80684A"/>
</svg>
