<svg width="169" height="37" viewBox="0 0 169 37" fill="none" xmlns="http://www.w3.org/2000/svg">
<path d="M22.0598 25.4025H24.3208V12.3333C23.5195 12.5983 22.0598 12.6866 22.0598 12.6866V12.3333C23.7771 12.2156 25.2081 11.7152 26.267 11.1854V25.4025H28.5281V25.7558H22.0598V25.4025ZM25.2367 9.83135H25.0077C24.6643 8.44789 24.0346 8.0358 23.0902 7.94749V7.68258C24.0346 7.59427 24.6643 7.21161 25.0077 5.79873H25.2367C25.6088 7.21161 26.1812 7.59427 27.1543 7.68258V7.94749C26.1812 8.0358 25.6088 8.44789 25.2367 9.83135Z" fill="#80684A"/>
<path d="M31.8141 21.782V11.9507H28.9806V11.5975H29.4386C32.3293 11.5975 33.3596 8.12411 33.3882 5.15115H33.7603V11.5975H34.5044C36.4506 11.5975 37.9389 11.5091 38.7975 11.3325L38.5399 11.9507H33.7603C33.7889 14.9236 35.2486 16.7192 36.5651 18.3381C37.6813 19.751 38.7117 21.0167 38.7117 22.7239C38.7117 24.2546 37.7099 26.0796 35.2772 26.0796C33.0162 26.0796 31.8141 24.4901 31.8141 21.782ZM33.7603 14.3055V22.1941C33.7603 24.6667 34.9337 25.3731 35.9927 25.3731C37.1089 25.3731 38.3682 24.5784 38.3682 22.7239C38.3682 21.1344 37.3951 19.9276 36.3075 18.603C35.3344 17.4256 34.3041 16.101 33.7603 14.3055Z" fill="#80684A"/>
<path d="M40.144 25.4025H42.4051V3.73827C41.4892 4.00318 40.144 4.09149 40.144 4.09149V3.73827C41.8899 3.62053 43.1492 3.23787 44.3513 2.61973V22.253C46.5264 18.6619 48.8447 15.2474 51.4778 11.9507H48.9878V11.5975H54.254V11.9507H51.8785C50.5047 13.6874 49.1882 15.4535 47.9289 17.3373L53.2237 25.4025H55.2557V25.7558H48.673V25.4025H50.9054L46.784 19.074C45.3816 21.2522 44.0078 23.5187 42.7199 25.7558H40.144V25.4025Z" fill="#80684A"/>
<path d="M66.4149 15.9539V17.7494C66.4435 18.7502 66.9587 19.8393 67.4739 20.8695C67.989 21.9881 68.5328 23.0772 68.5328 24.1368C68.5328 25.8441 67.5311 26.0796 66.7011 26.0796C65.1556 26.0796 64.4973 25.0788 64.4687 23.0772C61.9501 25.7852 60.2328 26.0796 59.1166 26.0796C56.8842 26.0796 55.8825 24.755 55.8825 23.0772C55.8825 21.2228 57.1704 19.9865 58.8877 19.1034C57.6856 17.9849 57.0559 16.6309 57.0559 15.1885C57.0559 13.0692 58.6587 11.2442 61.4921 11.2442C63.8963 11.2442 66.4149 12.245 66.4149 15.9539ZM64.4687 17.4551V15.9539C64.4687 13.1281 63.8104 11.6269 61.3204 11.6269C59.0021 11.6269 57.3994 13.187 57.3994 15.1885C57.3994 16.6014 57.9718 17.8377 59.2025 18.9562C60.7194 18.2498 62.4366 17.8083 64.4687 17.4551ZM62.4939 20.9284L62.3794 21.2816C61.2059 20.7518 60.2901 20.2514 59.5459 19.6921C58.6587 20.3986 58.1435 21.3699 58.1435 22.6945C58.1435 24.4901 59.1452 25.1376 60.3473 25.1376C61.7211 25.1376 63.5528 23.5776 64.4687 22.5473V17.8083C62.6942 18.1321 61.0342 18.6325 59.8321 19.4861C60.5477 19.9865 61.4063 20.4574 62.4939 20.9284ZM66.4149 19.6038V23.7542C66.4149 24.4901 66.5866 25.3731 67.3307 25.3731C67.7601 25.3731 68.1894 25.0788 68.1894 24.1368C68.1894 22.6945 67.159 21.0756 66.4149 19.6038Z" fill="#80684A"/>
<path d="M85.1098 26.1679L78.8418 7.27049C77.7829 9.33095 76.8956 11.9212 76.3232 15.0119L76.0084 14.8942C76.5808 11.6563 77.5253 8.97773 78.7273 6.82896L78.0405 4.82737H75.7508V4.47414H80.3015C82.6484 1.50119 85.5104 0 87.9432 0C90.9484 0 93.3525 2.1782 93.3525 6.12251C93.3525 12.0095 88.9163 21.0167 85.4532 26.1679H85.1098ZM80.6736 4.47414H83.6787V4.82737H80.5591L86.5408 23.8425C89.6891 18.603 93.0091 11.1854 93.0091 6.12251C93.0091 2.38425 90.8053 0.353223 87.9432 0.353223C85.6535 0.353223 82.9632 1.70724 80.6736 4.47414Z" fill="#80684A"/>
<path d="M94.3102 25.4025H96.5712V12.3333C95.7698 12.5983 94.3102 12.6866 94.3102 12.6866V12.3333C96.0274 12.2156 97.4585 11.7152 98.5174 11.1854V25.4025H100.778V25.7558H94.3102V25.4025ZM97.4871 9.83135H97.2581C96.9146 8.44789 96.285 8.0358 95.3405 7.94749V7.68258C96.285 7.59427 96.9146 7.21161 97.2581 5.79873H97.4871C97.8591 7.21161 98.4315 7.59427 99.4046 7.68258V7.94749C98.4315 8.0358 97.8591 8.44789 97.4871 9.83135Z" fill="#80684A"/>
<path d="M101.718 25.4025H103.979V12.3333C102.948 12.6277 101.718 12.6866 101.718 12.6866V12.3333C103.578 12.2156 104.894 11.6858 105.925 11.1854V12.8632C107.613 11.6563 109.159 11.2442 110.218 11.2442C114.311 11.2442 114.568 14.3055 114.568 16.6897V25.4025H116.829V25.7558H101.718V25.4025ZM112.622 25.4025V16.2188C112.622 12.1273 110.704 11.7741 109.531 11.7741C108.329 11.7741 106.841 12.6277 105.925 13.3047V25.4025H112.622Z" fill="#80684A"/>
<path d="M119.8 21.782V11.9507H116.967V11.5975H117.425C120.315 11.5975 121.346 8.12411 121.374 5.15115H121.746V11.5975H122.491C124.437 11.5975 125.925 11.5091 126.784 11.3325L126.526 11.9507H121.746C121.775 14.9236 123.235 16.7192 124.551 18.3381C125.667 19.751 126.698 21.0167 126.698 22.7239C126.698 24.2546 125.696 26.0796 123.263 26.0796C121.002 26.0796 119.8 24.4901 119.8 21.782ZM121.746 14.3055V22.1941C121.746 24.6667 122.92 25.3731 123.979 25.3731C125.095 25.3731 126.354 24.5784 126.354 22.7239C126.354 21.1344 125.381 19.9276 124.294 18.603C123.321 17.4256 122.29 16.101 121.746 14.3055Z" fill="#80684A"/>
<path d="M138.777 15.9539V17.7494C138.806 18.7502 139.321 19.8393 139.836 20.8695C140.351 21.9881 140.895 23.0772 140.895 24.1368C140.895 25.8441 139.893 26.0796 139.063 26.0796C137.518 26.0796 136.859 25.0788 136.831 23.0772C134.312 25.7852 132.595 26.0796 131.479 26.0796C129.246 26.0796 128.245 24.755 128.245 23.0772C128.245 21.2228 129.533 19.9865 131.25 19.1034C130.048 17.9849 129.418 16.6309 129.418 15.1885C129.418 13.0692 131.021 11.2442 133.854 11.2442C136.258 11.2442 138.777 12.245 138.777 15.9539ZM136.831 17.4551V15.9539C136.831 13.1281 136.173 11.6269 133.683 11.6269C131.364 11.6269 129.762 13.187 129.762 15.1885C129.762 16.6014 130.334 17.8377 131.565 18.9562C133.082 18.2498 134.799 17.8083 136.831 17.4551ZM134.856 20.9284L134.742 21.2816C133.568 20.7518 132.652 20.2514 131.908 19.6921C131.021 20.3986 130.506 21.3699 130.506 22.6945C130.506 24.4901 131.507 25.1376 132.709 25.1376C134.083 25.1376 135.915 23.5776 136.831 22.5473V17.8083C135.056 18.1321 133.396 18.6325 132.194 19.4861C132.91 19.9865 133.768 20.4574 134.856 20.9284ZM138.777 19.6038V23.7542C138.777 24.4901 138.949 25.3731 139.693 25.3731C140.122 25.3731 140.552 25.0788 140.552 24.1368C140.552 22.6945 139.521 21.0756 138.777 19.6038Z" fill="#80684A"/>
<path d="M143.713 26.6683L143.828 26.9626C142.597 27.5219 141.338 28.6698 141.338 31.0835C141.338 34.7629 144.114 36.6468 148.464 36.6468C152.07 36.6468 155.19 34.7629 155.19 31.4368C155.19 28.4049 152.557 26.9626 148.693 26.0207L146.375 25.4614C143.742 24.8433 143.112 23.9308 143.112 22.7534C143.112 21.8115 143.885 20.8695 145.602 20.6046C143.57 19.7804 142.654 17.72 142.654 15.9244C142.654 13.3636 144.658 11.2442 147.949 11.2442C148.693 11.2442 149.809 11.4208 150.84 11.9212C151.04 10.5084 151.927 8.77168 153.616 8.77168C154.475 8.77168 155.104 9.38982 155.104 10.5084C155.104 11.6858 154.246 12.8632 152.557 13.4224C152.958 14.0406 153.244 14.8942 153.244 15.8656C153.244 19.4861 150.296 20.899 147.892 20.899H146.833C145.831 20.899 144.4 21.0167 144.4 22.1058C144.4 23.0183 145.688 23.4304 146.89 23.7247L149.266 24.284C153.759 25.3142 156.507 27.1981 156.507 30.8481C156.507 33.5561 153.788 37 148.464 37C143.227 37 140.422 34.2331 140.422 31.1424C140.422 29.0819 142.11 27.3453 143.713 26.6683ZM150.725 13.7168H150.496C149.18 13.7168 147.606 13.4224 145.774 12.6866C145.087 13.6285 144.915 15.1002 144.915 16.2188C144.915 17.9555 145.345 20.5457 147.863 20.5457C150.296 20.5457 150.983 18.6325 150.983 15.9833C150.983 15.1002 150.868 14.3055 150.725 13.7168ZM152.328 13.1281C153.931 12.6866 154.761 11.568 154.761 10.5084C154.761 9.56643 154.303 9.1249 153.616 9.1249C152.099 9.1249 151.298 10.7438 151.155 12.1273C151.613 12.3922 151.956 12.716 152.328 13.1281ZM150.611 13.3636C150.096 12.1273 149.151 11.5975 147.835 11.5975C147.062 11.5975 146.432 11.9212 146.003 12.3922C147.777 13.0692 149.237 13.3636 150.611 13.3636Z" fill="#80684A"/>
<path d="M167.683 16.6014H158.611C158.553 17.1313 158.525 17.6611 158.525 18.2498C158.525 24.284 160.9 25.7263 162.818 25.7263C166.481 25.7263 168.657 21.9586 168.657 17.72C168.657 16.8369 168.542 15.895 168.313 14.9825L168.657 14.8648C168.886 15.8067 169 16.8369 169 17.72C169 22.1352 166.71 26.0796 162.818 26.0796C159.927 26.0796 156.264 24.2546 156.264 18.6619C156.264 14.5115 158.611 11.2442 162.503 11.2442C166.052 11.2442 167.655 14.0111 167.683 16.6014ZM162.274 11.5975C160.5 11.5975 159.097 13.4224 158.668 16.2482H165.537C165.508 13.7462 164.535 11.5975 162.274 11.5975Z" fill="#80684A"/>
<path d="M0 25.7558V25.4025H2.83344V7.62371L0.543792 4.7685V4.47414H3.31999L3.66344 4.82737L18.3172 23.0477V4.82737H15.4838V4.47414H21.4941V4.82737H18.6607V23.4598L20.2634 25.4614V25.7558H17.4872L17.1438 25.4025L3.17689 8.0358V25.4025H6.01034V25.7558H0Z" fill="#80684A"/>
</svg>
