<svg 
 xmlns="http://www.w3.org/2000/svg"
 xmlns:xlink="http://www.w3.org/1999/xlink"
 width="894px" height="894px">
<path fill-rule="evenodd"  fill="rgb(255, 255, 255)"
 d="M223.520,0.322 C226.878,0.322 230.236,0.322 233.594,0.322 C233.594,0.931 233.594,1.540 233.594,2.150 C239.061,2.430 240.246,3.895 243.668,5.804 C244.279,5.804 244.889,5.804 245.500,5.804 C245.805,6.413 246.110,7.022 246.416,7.631 C247.026,7.631 247.637,7.631 248.247,7.631 C248.247,7.936 248.247,8.241 248.247,8.545 C260.152,8.545 272.060,8.545 283.964,8.545 C299.226,8.545 314.493,8.545 329.755,8.545 C337.675,8.545 348.095,9.353 354.482,7.631 C358.145,7.936 361.809,8.241 365.472,8.545 C365.472,8.241 365.472,7.936 365.472,7.631 C367.304,7.631 369.136,7.631 370.967,7.631 C370.967,7.327 370.967,7.022 370.967,6.718 C372.188,6.718 373.409,6.718 374.630,6.718 C374.630,6.413 374.630,6.109 374.630,5.804 C377.072,5.804 379.515,5.804 381.957,5.804 C381.957,5.500 381.957,5.195 381.957,4.890 C382.262,4.890 382.567,4.890 382.873,4.890 C382.873,5.195 382.873,5.500 382.873,5.804 C387.757,6.109 392.642,6.413 397.526,6.718 C397.526,7.022 397.526,7.327 397.526,7.631 C403.631,7.631 409.737,7.631 415.842,7.631 C422.972,9.620 434.611,8.545 443.317,8.545 C461.326,8.545 479.341,8.545 497.350,8.545 C514.690,8.545 537.338,10.331 550.468,5.804 C553.556,4.739 574.078,5.944 576.111,6.718 C576.111,7.022 576.111,7.327 576.111,7.631 C576.721,7.631 577.332,7.631 577.942,7.631 C577.942,7.936 577.942,8.241 577.942,8.545 C581.300,8.545 584.659,8.545 588.016,8.545 C592.290,8.545 596.564,8.545 600.838,8.545 C600.838,8.241 600.838,7.936 600.838,7.631 C603.890,7.022 606.944,6.413 609.996,5.804 C609.996,5.500 609.996,5.195 609.996,4.890 C610.912,4.890 611.828,4.890 612.743,4.890 C612.743,4.586 612.743,4.281 612.743,3.977 C613.659,3.977 614.575,3.977 615.491,3.977 C615.491,3.672 615.491,3.368 615.491,3.063 C620.684,1.426 639.616,3.697 642.965,4.890 C642.965,5.195 642.965,5.500 642.965,5.804 C643.881,5.804 644.797,5.804 645.713,5.804 C645.713,6.109 645.713,6.413 645.713,6.718 C646.934,7.022 648.155,7.327 649.376,7.631 C649.376,7.936 649.376,8.241 649.376,8.545 C662.502,8.545 675.631,8.545 688.756,8.545 C688.756,8.241 688.756,7.936 688.756,7.631 C689.672,7.631 690.588,7.631 691.504,7.631 C691.504,7.327 691.504,7.022 691.504,6.718 C697.914,6.718 704.326,6.718 710.736,6.718 C710.736,7.022 710.736,7.327 710.736,7.631 C713.124,8.320 732.499,9.643 735.463,8.545 C735.463,8.241 735.463,7.936 735.463,7.631 C736.074,7.631 736.684,7.631 737.295,7.631 C737.600,7.022 737.905,6.413 738.211,5.804 C739.126,5.804 740.042,5.804 740.958,5.804 C741.263,5.195 741.569,4.586 741.874,3.977 C746.453,3.977 751.033,3.977 755.611,3.977 C755.611,4.281 755.611,4.586 755.611,4.890 C756.832,4.890 758.054,4.890 759.275,4.890 C759.275,5.195 759.275,5.500 759.275,5.804 C760.496,5.804 761.717,5.804 762.938,5.804 C762.938,6.109 762.938,6.413 762.938,6.718 C764.159,6.718 765.380,6.718 766.601,6.718 C766.601,7.022 766.601,7.327 766.601,7.631 C769.348,7.631 772.096,7.631 774.843,7.631 C774.843,7.936 774.843,8.241 774.843,8.545 C779.422,8.545 784.002,8.545 788.581,8.545 C788.581,8.241 788.581,7.936 788.581,7.631 C793.770,7.936 798.961,8.241 804.150,8.545 C804.150,8.241 804.150,7.936 804.150,7.631 C805.676,7.631 807.203,7.631 808.729,7.631 C808.729,7.327 808.729,7.022 808.729,6.718 C810.720,6.274 811.476,7.631 811.476,7.631 C815.444,7.631 819.414,7.631 823.382,7.631 C823.382,7.936 823.382,8.241 823.382,8.545 C827.961,8.241 832.541,7.936 837.119,7.631 C837.119,7.936 837.119,8.241 837.119,8.545 C848.413,8.545 859.711,8.545 871.005,8.545 C871.005,8.241 871.005,7.936 871.005,7.631 C872.852,7.341 872.836,8.545 872.836,8.545 C878.025,8.545 883.216,8.545 888.405,8.545 C889.218,12.888 892.988,18.227 891.153,24.077 C890.847,24.077 890.542,24.077 890.237,24.077 C890.237,24.991 890.237,25.905 890.237,26.818 C889.932,26.818 889.626,26.818 889.321,26.818 C889.321,27.732 889.321,28.646 889.321,29.559 C889.016,29.559 888.710,29.559 888.405,29.559 C888.405,38.695 888.405,47.833 888.405,56.969 C888.405,61.232 888.405,65.497 888.405,69.760 C888.710,69.760 889.016,69.760 889.321,69.760 C889.321,70.978 889.321,72.196 889.321,73.414 C889.626,73.414 889.932,73.414 890.237,73.414 C890.679,75.329 888.759,79.495 888.405,80.724 C888.405,88.946 888.405,97.170 888.405,105.392 C888.405,109.351 888.405,113.311 888.405,117.270 C888.710,117.270 889.016,117.270 889.321,117.270 C889.321,118.488 889.321,119.706 889.321,120.924 C889.626,120.924 889.932,120.924 890.237,120.924 C890.237,121.838 890.237,122.752 890.237,123.665 C890.542,123.665 890.847,123.665 891.153,123.665 C891.153,126.101 891.153,128.538 891.153,130.975 C891.458,130.975 891.763,130.975 892.068,130.975 C892.068,132.497 892.068,134.020 892.068,135.543 C892.374,135.543 892.679,135.543 892.984,135.543 C892.984,135.847 892.984,136.152 892.984,136.456 C892.679,139.502 892.374,142.548 892.068,145.593 C891.763,145.593 891.458,145.593 891.153,145.593 C891.153,147.725 891.153,149.857 891.153,151.989 C890.847,151.989 890.542,151.989 890.237,151.989 C890.237,152.598 890.237,153.207 890.237,153.816 C889.932,153.816 889.626,153.816 889.321,153.816 C889.321,154.729 889.321,155.643 889.321,156.557 C889.016,156.557 888.710,156.557 888.405,156.557 C888.710,161.429 889.016,166.303 889.321,171.175 C889.626,171.175 889.932,171.175 890.237,171.175 C890.884,173.619 889.532,175.361 889.321,176.657 C889.626,180.920 889.932,185.185 890.237,189.448 C890.542,189.448 890.847,189.448 891.153,189.448 C892.992,195.645 889.457,201.657 888.405,204.980 C888.405,221.424 888.405,237.874 888.405,254.318 C888.710,254.318 889.016,254.318 889.321,254.318 C889.321,255.231 889.321,256.145 889.321,257.059 C889.626,257.059 889.932,257.059 890.237,257.059 C890.237,258.277 890.237,259.495 890.237,260.713 C890.542,260.713 890.847,260.713 891.153,260.713 C891.153,264.672 891.153,268.632 891.153,272.591 C891.458,272.591 891.763,272.591 892.068,272.591 C892.068,276.245 892.068,279.900 892.068,283.554 C890.403,289.400 888.556,295.253 889.321,303.655 C889.626,305.482 889.932,307.310 890.237,309.137 C890.542,309.137 890.847,309.137 891.153,309.137 C891.153,312.791 891.153,316.446 891.153,320.101 C890.847,320.101 890.542,320.101 890.237,320.101 C890.542,325.886 890.847,331.674 891.153,337.460 C890.847,337.460 890.542,337.460 890.237,337.460 C890.237,338.069 890.237,338.678 890.237,339.287 C889.932,339.287 889.626,339.287 889.321,339.287 C888.027,343.028 890.637,347.790 890.237,350.251 C889.932,350.251 889.626,350.251 889.321,350.251 C889.321,352.078 889.321,353.906 889.321,355.733 C889.016,355.733 888.710,355.733 888.405,355.733 C888.405,365.478 888.405,375.225 888.405,384.970 C888.405,389.233 888.405,393.498 888.405,397.761 C888.710,397.761 889.016,397.761 889.321,397.761 C889.321,398.370 889.321,398.979 889.321,399.588 C889.931,399.893 890.542,400.198 891.153,400.502 C892.282,403.086 890.611,408.387 890.237,409.639 C890.237,411.161 890.237,412.684 890.237,414.207 C889.414,416.814 887.120,421.469 888.405,426.084 C888.710,426.084 889.016,426.084 889.321,426.084 C889.016,436.743 888.710,447.404 888.405,458.062 C888.710,458.062 889.016,458.062 889.321,458.062 C889.321,459.889 889.321,461.717 889.321,463.544 C889.626,463.544 889.932,463.544 890.237,463.544 C889.932,468.112 889.626,472.681 889.321,477.249 C889.321,481.512 889.321,485.777 889.321,490.040 C889.016,490.040 888.710,490.040 888.405,490.040 C886.730,496.023 889.859,501.598 890.237,505.572 C890.237,512.272 890.237,518.973 890.237,525.672 C889.932,525.672 889.626,525.672 889.321,525.672 C889.016,530.545 888.710,535.419 888.405,540.291 C888.710,540.291 889.016,540.291 889.321,540.291 C889.626,547.904 889.932,555.519 890.237,563.132 C889.932,563.132 889.626,563.132 889.321,563.132 C889.321,564.046 889.321,564.960 889.321,565.873 C889.016,565.873 888.710,565.873 888.405,565.873 C888.405,568.309 888.405,570.746 888.405,573.182 C888.405,603.330 888.405,633.486 888.405,663.634 C889.750,679.480 888.405,702.403 888.405,721.194 C888.405,728.807 888.405,736.422 888.405,744.035 C888.710,744.035 889.016,744.035 889.321,744.035 C889.321,744.949 889.321,745.863 889.321,746.776 C889.626,746.776 889.932,746.776 890.237,746.776 C890.237,747.690 890.237,748.604 890.237,749.517 C890.542,749.517 890.847,749.517 891.153,749.517 C891.458,751.649 891.763,753.781 892.068,755.913 C892.374,755.913 892.679,755.913 892.984,755.913 C892.984,756.522 892.984,757.131 892.984,757.740 C893.289,757.740 893.595,757.740 893.900,757.740 C893.900,762.613 893.900,767.486 893.900,772.359 C893.595,772.359 893.289,772.359 892.984,772.359 C892.984,772.968 892.984,773.577 892.984,774.186 C892.679,774.186 892.374,774.186 892.068,774.186 C892.068,775.404 892.068,776.622 892.068,777.841 C891.763,777.841 891.458,777.841 891.153,777.841 C890.542,781.495 889.931,785.150 889.321,788.804 C889.016,788.804 888.710,788.804 888.405,788.804 C888.405,821.693 888.405,854.591 888.405,887.479 C876.195,887.479 863.982,887.479 851.772,887.479 C851.772,887.783 851.772,888.088 851.772,888.393 C851.162,888.393 850.551,888.393 849.941,888.393 C849.635,889.002 849.330,889.611 849.025,890.220 C847.193,890.524 845.361,890.829 843.530,891.133 C843.530,891.438 843.530,891.743 843.530,892.047 C842.919,892.047 842.309,892.047 841.698,892.047 C841.698,892.352 841.698,892.656 841.698,892.961 C835.593,892.656 829.487,892.352 823.382,892.047 C823.382,891.743 823.382,891.438 823.382,891.133 C822.466,891.133 821.550,891.133 820.634,891.133 C820.634,890.829 820.634,890.524 820.634,890.220 C816.361,890.220 812.086,890.220 807.813,890.220 C807.813,889.915 807.813,889.611 807.813,889.306 C807.202,889.306 806.592,889.306 805.981,889.306 C805.981,889.002 805.981,888.697 805.981,888.393 C803.717,887.524 793.709,886.542 790.412,887.479 C776.787,891.350 753.774,891.400 740.042,887.479 C735.569,886.202 715.861,887.460 712.568,888.393 C697.611,888.088 682.649,887.783 667.693,887.479 C660.672,887.479 653.649,887.479 646.629,887.479 C646.629,887.783 646.629,888.088 646.629,888.393 C645.408,888.393 644.186,888.393 642.965,888.393 C642.965,888.697 642.965,889.002 642.965,889.306 C640.236,890.122 636.067,888.772 634.723,888.393 C628.313,888.393 621.901,888.393 615.491,888.393 C614.575,888.088 613.659,887.783 612.743,887.479 C612.743,887.783 612.743,888.088 612.743,888.393 C611.522,888.393 610.301,888.393 609.080,888.393 C609.080,888.697 609.080,889.002 609.080,889.306 C608.164,889.306 607.248,889.306 606.333,889.306 C606.333,889.611 606.333,889.915 606.333,890.220 C605.112,890.220 603.890,890.220 602.669,890.220 C602.669,890.524 602.669,890.829 602.669,891.133 C601.754,891.133 600.838,891.133 599.922,891.133 C599.922,891.438 599.922,891.743 599.922,892.047 C595.649,891.743 591.374,891.438 587.100,891.133 C579.775,891.438 572.447,891.743 565.121,892.047 C565.121,891.743 565.121,891.438 565.121,891.133 C562.679,890.829 560.236,890.524 557.794,890.220 C557.794,889.915 557.794,889.611 557.794,889.306 C556.573,889.002 555.352,888.697 554.131,888.393 C554.131,888.088 554.131,887.783 554.131,887.479 C549.858,887.783 545.583,888.088 541.309,888.393 C533.051,886.230 520.029,887.479 510.172,887.479 C504.443,887.479 497.051,887.178 492.771,888.393 C488.498,888.393 484.223,888.393 479.950,888.393 C479.950,888.697 479.950,889.002 479.950,889.306 C479.339,889.306 478.728,889.306 478.118,889.306 C478.118,889.611 478.118,889.915 478.118,890.220 C474.150,890.524 470.180,890.829 466.212,891.133 C464.567,891.676 462.178,894.039 458.886,892.961 C458.886,892.656 458.886,892.352 458.886,892.047 C457.180,891.355 453.395,890.297 450.643,891.133 C450.643,891.438 450.643,891.743 450.643,892.047 C448.812,892.352 446.980,892.656 445.148,892.961 C445.148,892.656 445.148,892.352 445.148,892.047 C443.927,892.047 442.706,892.047 441.485,892.047 C441.485,891.743 441.485,891.438 441.485,891.133 C440.264,891.133 439.043,891.133 437.822,891.133 C437.822,890.829 437.822,890.524 437.822,890.220 C434.464,890.220 431.106,890.220 427.748,890.220 C427.748,889.915 427.748,889.611 427.748,889.306 C427.137,889.306 426.527,889.306 425.916,889.306 C425.916,889.002 425.916,888.697 425.916,888.393 C424.390,888.393 422.863,888.393 421.337,888.393 C421.337,888.088 421.337,887.783 421.337,887.479 C411.875,887.783 402.409,888.088 392.947,888.393 C392.947,888.088 392.947,887.783 392.947,887.479 C384.765,885.182 381.594,892.388 373.715,890.220 C373.715,889.915 373.715,889.611 373.715,889.306 C368.831,889.306 363.945,889.306 359.061,889.306 C359.061,889.002 359.061,888.697 359.061,888.393 C357.840,888.393 356.619,888.393 355.398,888.393 C355.398,888.088 355.398,887.783 355.398,887.479 C351.430,887.479 347.461,887.479 343.492,887.479 C334.263,887.478 321.812,886.233 314.186,888.393 C305.945,888.088 297.701,887.783 289.459,887.479 C274.807,887.479 260.151,887.479 245.500,887.479 C245.500,887.783 245.500,888.088 245.500,888.393 C244.584,888.393 243.668,888.393 242.752,888.393 C242.447,889.002 242.142,889.611 241.836,890.220 C239.700,890.524 237.562,890.829 235.426,891.133 C235.426,891.438 235.426,891.743 235.426,892.047 C233.594,892.047 231.762,892.047 229.931,892.047 C229.931,891.743 229.931,891.438 229.931,891.133 C225.657,891.133 221.383,891.133 217.109,891.133 C217.109,890.829 217.109,890.524 217.109,890.220 C215.583,890.220 214.056,890.220 212.530,890.220 C212.530,889.915 212.530,889.611 212.530,889.306 C211.309,889.002 210.088,888.697 208.867,888.393 C208.867,888.088 208.867,887.783 208.867,887.479 C197.573,887.479 186.276,887.479 174.982,887.479 C169.659,888.964 163.575,887.480 156.665,887.479 C143.540,887.479 130.410,887.479 117.285,887.479 C109.959,887.783 102.631,888.088 95.305,888.393 C86.625,885.967 72.662,887.479 62.336,887.479 C58.062,887.479 53.788,887.479 49.514,887.479 C49.514,887.783 49.514,888.088 49.514,888.393 C48.599,888.393 47.683,888.393 46.767,888.393 C46.767,888.697 46.767,889.002 46.767,889.306 C45.851,889.306 44.935,889.306 44.019,889.306 C44.019,889.611 44.019,889.915 44.019,890.220 C39.901,891.489 35.570,888.248 33.030,887.479 C24.788,887.783 16.544,888.088 8.302,888.393 C6.590,883.797 7.341,875.312 7.387,869.206 C6.076,867.792 4.255,857.408 5.555,853.674 C5.860,853.674 6.166,853.674 6.471,853.674 C6.471,853.065 6.471,852.455 6.471,851.846 C6.776,851.846 7.081,851.846 7.387,851.846 C7.387,843.320 7.387,834.791 7.387,826.264 C7.387,822.914 7.387,819.564 7.387,816.214 C7.081,816.214 6.776,816.214 6.471,816.214 C6.166,814.996 5.860,813.777 5.555,812.559 C5.250,812.559 4.944,812.559 4.639,812.559 C4.639,809.514 4.639,806.468 4.639,803.423 C2.371,795.312 5.470,787.182 7.387,780.582 C7.387,776.014 7.387,771.445 7.387,766.877 C7.387,759.264 7.387,751.648 7.387,744.035 C7.081,744.035 6.776,744.035 6.471,744.035 C6.166,742.817 5.860,741.599 5.555,740.381 C5.250,740.381 4.944,740.381 4.639,740.381 C4.944,736.118 5.250,731.853 5.555,727.590 C5.860,727.590 6.166,727.590 6.471,727.590 C5.555,721.804 4.639,716.016 3.723,710.230 C4.029,710.230 4.334,710.230 4.639,710.230 C5.407,707.543 4.543,705.895 5.555,703.835 C5.860,703.835 6.166,703.835 6.471,703.835 C6.471,703.226 6.471,702.616 6.471,702.007 C6.776,702.007 7.081,702.007 7.387,702.007 C7.387,691.958 7.387,681.906 7.387,671.857 C7.081,671.857 6.776,671.857 6.471,671.857 C6.776,660.894 7.081,649.928 7.387,638.965 C7.387,613.995 7.387,589.017 7.387,564.046 C7.387,553.388 7.387,542.726 7.387,532.068 C7.081,532.068 6.776,532.068 6.471,532.068 C6.471,531.154 6.471,530.241 6.471,529.327 C6.166,529.327 5.860,529.327 5.555,529.327 C5.555,528.718 5.555,528.109 5.555,527.500 C5.250,527.500 4.944,527.500 4.639,527.500 C4.639,525.368 4.639,523.236 4.639,521.104 C4.334,521.104 4.029,521.104 3.723,521.104 C3.415,519.234 5.408,517.702 4.639,514.709 C4.334,514.709 4.029,514.709 3.723,514.709 C4.029,511.054 4.334,507.399 4.639,503.745 C4.944,503.745 5.250,503.745 5.555,503.745 C5.860,502.527 6.166,501.308 6.471,500.090 C6.776,500.090 7.081,500.090 7.387,500.090 C7.387,480.601 7.387,461.106 7.387,441.616 C6.776,435.526 6.166,429.434 5.555,423.343 C8.413,414.145 7.387,398.877 7.387,386.797 C7.387,380.808 7.742,373.058 6.471,368.524 C6.776,356.952 7.081,345.377 7.387,333.805 C6.282,329.977 3.847,321.632 5.555,315.532 C5.860,315.532 6.166,315.532 6.471,315.532 C6.471,311.878 6.471,308.223 6.471,304.569 C6.166,304.569 5.860,304.569 5.555,304.569 C5.555,303.655 5.555,302.741 5.555,301.828 C5.250,301.828 4.944,301.828 4.639,301.828 C4.334,298.478 4.029,295.127 3.723,291.777 C3.418,291.777 3.113,291.777 2.808,291.777 C2.808,290.255 2.808,288.732 2.808,287.209 C2.502,287.209 2.197,287.209 1.892,287.209 C1.549,285.676 3.413,280.043 3.723,278.986 C4.029,274.418 4.334,269.849 4.639,265.281 C4.944,265.281 5.250,265.281 5.555,265.281 C5.555,264.063 5.555,262.845 5.555,261.627 C5.860,261.627 6.166,261.627 6.471,261.627 C6.471,260.713 6.471,259.799 6.471,258.886 C6.776,258.886 7.081,258.886 7.387,258.886 C7.387,253.709 7.387,248.531 7.387,243.354 C7.387,236.045 7.387,228.735 7.387,221.426 C6.276,217.525 2.733,208.251 4.639,202.239 C4.944,202.239 5.250,202.239 5.555,202.239 C5.555,201.326 5.555,200.412 5.555,199.498 C5.860,199.498 6.166,199.498 6.471,199.498 C6.471,198.585 6.471,197.671 6.471,196.758 C6.776,196.758 7.081,196.758 7.387,196.758 C7.387,183.054 7.387,169.347 7.387,155.643 C7.081,155.643 6.776,155.643 6.471,155.643 C6.471,155.034 6.471,154.425 6.471,153.816 C6.166,153.816 5.860,153.816 5.555,153.816 C5.250,152.293 4.944,150.770 4.639,149.248 C4.334,149.248 4.029,149.248 3.723,149.248 C3.723,148.639 3.723,148.029 3.723,147.420 C3.113,147.116 2.502,146.811 1.892,146.507 C1.892,145.289 1.892,144.070 1.892,142.852 C1.587,142.852 1.281,142.852 0.976,142.852 C1.586,138.893 2.197,134.933 2.808,130.975 C3.418,130.670 4.029,130.365 4.639,130.061 C4.639,128.843 4.639,127.624 4.639,126.406 C4.944,126.406 5.250,126.406 5.555,126.406 C5.555,125.493 5.555,124.579 5.555,123.665 C5.860,123.665 6.166,123.665 6.471,123.665 C6.471,122.447 6.471,121.229 6.471,120.011 C6.776,120.011 7.081,120.011 7.387,120.011 C7.387,113.311 7.387,106.610 7.387,99.910 C7.387,99.606 7.387,99.301 7.387,98.997 C7.081,98.997 6.776,98.997 6.471,98.997 C6.471,95.647 6.471,92.296 6.471,88.946 C6.166,88.946 5.860,88.946 5.555,88.946 C4.945,87.119 4.334,85.292 3.723,83.465 C3.418,83.465 3.113,83.465 2.808,83.465 C2.808,80.115 2.808,76.764 2.808,73.414 C3.418,65.801 4.029,58.186 4.639,50.573 C4.944,50.573 5.250,50.573 5.555,50.573 C5.555,49.964 5.555,49.355 5.555,48.746 C5.860,48.746 6.166,48.746 6.471,48.746 C6.471,47.832 6.471,46.918 6.471,46.005 C6.776,46.005 7.081,46.005 7.387,46.005 C7.387,42.046 7.387,38.086 7.387,34.127 C7.081,34.127 6.776,34.127 6.471,34.127 C4.947,28.667 7.033,11.982 8.302,8.545 C13.936,8.248 17.668,5.357 22.040,3.977 C25.269,2.957 37.349,4.982 39.440,5.804 C39.440,6.109 39.440,6.413 39.440,6.718 C40.661,7.022 41.883,7.327 43.104,7.631 C43.104,7.936 43.104,8.241 43.104,8.545 C54.703,8.545 66.306,8.545 77.905,8.545 C83.399,8.545 88.895,8.545 94.390,8.545 C94.390,8.241 94.390,7.936 94.390,7.631 C101.105,7.936 107.822,8.241 114.538,8.545 C131.326,8.545 148.119,8.545 164.908,8.545 C177.728,8.545 190.552,8.545 203.372,8.545 C203.372,8.241 203.372,7.936 203.372,7.631 C204.593,7.631 205.814,7.631 207.035,7.631 C207.035,7.327 207.035,7.022 207.035,6.718 C208.256,6.718 209.478,6.718 210.699,6.718 C210.699,6.413 210.699,6.109 210.699,5.804 C211.920,5.804 213.141,5.804 214.362,5.804 C214.362,5.500 214.362,5.195 214.362,4.890 C214.972,4.890 215.583,4.890 216.194,4.890 C216.194,4.586 216.194,4.281 216.194,3.977 C218.635,3.368 221.078,2.759 223.520,2.150 C223.520,1.540 223.520,0.931 223.520,0.322 Z"/>
</svg>