<svg xmlns="http://www.w3.org/2000/svg" width="100" height="79" viewBox="0 0 100 79">
  <defs>
    <style>
      .cls-1 {
        fill: #fff;
        fill-rule: evenodd;
      }
    </style>
  </defs>
  <path id="Фигура_317_1" data-name="Фигура 317 1" class="cls-1" d="M958.315,288.188l0.054,0.271h0.161a12.486,12.486,0,0,1,.216,2.491,2.225,2.225,0,0,0-.108.975,0.8,0.8,0,0,1,.054.379,12.011,12.011,0,0,0-.162,2.816c0.017,0.675.628,0.907,0.431,1.734-0.1.4-.321,0.847-0.431,1.191v2.871a1.475,1.475,0,0,1,.431,1.083c-0.081.368-.29,0.72-0.377,1.029a6.594,6.594,0,0,0,.054,2.112,0.832,0.832,0,0,1-.108.379v3.521a0.8,0.8,0,0,1,.108.541,3.154,3.154,0,0,0-.108,1.354,1.942,1.942,0,0,1,.216,1.138c-0.032.115-.184,0.279-0.216,0.379a4.047,4.047,0,0,0,.162,1.895c0.233,0.842-.365,1.41-0.162,2.329a3.645,3.645,0,0,1,.216,1.409,21.068,21.068,0,0,0-.216,4.007V327.4a11.86,11.86,0,0,1,0,3.2,0.848,0.848,0,0,0,.108.541v0.975a1.378,1.378,0,0,1,.162.758,2.475,2.475,0,0,0-.162.921,0.922,0.922,0,0,1,.108.488c-0.451,2.048-.247,5.008-0.216,7.365a4.329,4.329,0,0,0,.27,1.138v0.6a1.549,1.549,0,0,1,.107.649c-0.06.237-.306,0.433-0.377,0.65v1.842a19.032,19.032,0,0,0,.108,3.52,0.992,0.992,0,0,1-.108.542,1.214,1.214,0,0,0,.108.65,1.3,1.3,0,0,1-.108.7v2.329a5.31,5.31,0,0,1,.377,1.029,3.725,3.725,0,0,1-.377,1.191v1.084a14.5,14.5,0,0,0,.162,2.816,9.123,9.123,0,0,0-.162,1.625,8.181,8.181,0,0,1,.324,2.166,8.548,8.548,0,0,1-.324.813v1.462h-0.107a15.638,15.638,0,0,1-2.37,0,5.99,5.99,0,0,0-1.616.325,0.82,0.82,0,0,1-.377-0.054,0.894,0.894,0,0,0-.43.108l-1.455-.108a7.493,7.493,0,0,1-1.507.271c-0.3-.092-0.578-0.445-0.862-0.542H945.82l-0.592.054a4.179,4.179,0,0,0-1.454-.054,2.819,2.819,0,0,0-.377.217,4.26,4.26,0,0,1-1.777-.217,31.077,31.077,0,0,0-5.6.108,0.942,0.942,0,0,1-.485-0.108,8.762,8.762,0,0,0-2.423.054,15.137,15.137,0,0,0-1.616-.054,2.67,2.67,0,0,1-1.347.325,4.566,4.566,0,0,1-.646-0.325h-4.847l-0.969.162c-0.062-.015-0.219-0.147-0.269-0.162-0.849-.258-1.611.65-2.37,0.325a2.7,2.7,0,0,0-.485-0.325h-4.147c-0.215.053-1.988,0.448-2.046,0.433-0.212-.053-0.46-0.358-0.7-0.433a2.294,2.294,0,0,0-1.4.217l-0.861-.055a0.952,0.952,0,0,1-.647.217c-0.194-.059-0.367-0.315-0.592-0.379-1.065-.3-1.894.506-2.8,0.271-0.256-.067-0.682-0.2-0.969-0.271H904.89a16.162,16.162,0,0,0-3.447.108,2.036,2.036,0,0,1-.969-0.108h-2.208a6.236,6.236,0,0,1-1.939,0,9.528,9.528,0,0,0-.969.108,2.39,2.39,0,0,0-.97-0.108c-0.861.187-2.03-.238-3.016,0a12.424,12.424,0,0,1-2.208,0h-4.416a20.036,20.036,0,0,0-3.77.108,3.335,3.335,0,0,1-1.346-.108h-7.917c-0.2.056-.411,0.27-0.592,0.325a1.881,1.881,0,0,1-.808-0.163,7.1,7.1,0,0,0-1.347.217,5.481,5.481,0,0,1-1.777-.271c-0.393-.1-0.9-0.04-1.185-0.108H863.8c-1.533,0-2.791,0-4.362,0a0.215,0.215,0,0,0-.108-0.217l0.054-.216,0.054-2a1.273,1.273,0,0,1-.162-0.7,2.806,2.806,0,0,0,.108-0.759,6.8,6.8,0,0,1-.162-1.949,8.938,8.938,0,0,0,.216-1.788v-1.949a2.4,2.4,0,0,0-.269-0.325c-0.02-.038-0.127-1.329-0.108-1.409a4.315,4.315,0,0,1,.377-0.65v-1.841a19.142,19.142,0,0,0-.216-4.387c-0.193-.725.387-1.074,0.216-1.9a19.841,19.841,0,0,1,0-3.087V342.4c-0.072-.272-0.2-0.656-0.269-0.975a12.232,12.232,0,0,1,.215-1.517c0.09-.45-0.316-0.7-0.162-1.191,0.028-.089.188-0.237,0.216-0.325v-2.817a2.854,2.854,0,0,1-.377-1.354,2.818,2.818,0,0,0,.377-1.787c-0.182-.7.233-1.651,0-2.545a2.375,2.375,0,0,1-.108-1.03,1.348,1.348,0,0,0,.054-0.541c-0.045-.184-0.178-0.453-0.215-0.65a4.126,4.126,0,0,1,.269-1.408c0.238-1.066-.51-2.278-0.216-3.2,0.026-.079.191-0.207,0.216-0.271v-4.278c-0.041-.154-0.175-0.43-0.216-0.6-0.2-.811.163-1.6,0-2.221a5.272,5.272,0,0,1,.054-0.812,9.264,9.264,0,0,1-.269-1.462c0.051-.177.266-0.358,0.323-0.542a10.326,10.326,0,0,0,.108-2.708,2.806,2.806,0,0,1-.323-1.246,4.068,4.068,0,0,0,.269-1.137,4.284,4.284,0,0,1-.054-1.029,1.053,1.053,0,0,0,.054-0.433,3.668,3.668,0,0,1-.108-0.434,3.993,3.993,0,0,0,.162-1.624,1.243,1.243,0,0,1-.162-0.6,1.462,1.462,0,0,0,.108-0.758,1.9,1.9,0,0,1-.323-1.354c0.078-.257.285-0.662,0.377-0.921v-2.492a5.333,5.333,0,0,1-.269-2.6,2.6,2.6,0,0,1,.269-0.379V294.2c0-.933,0-1.836,0-2.871v-1.354a3.663,3.663,0,0,0-.216-0.325l0.108-1.137c0.347-.073.571-0.245,0.862-0.325a4.048,4.048,0,0,1,2.1.271H868.7a3,3,0,0,1,1.885,0,14.988,14.988,0,0,0,1.885,0l1.131-.054a13.5,13.5,0,0,0,3.016.054,3.4,3.4,0,0,1,1.346-.163c0.213,0.046.637-.01,0.916,0.054a23.167,23.167,0,0,0,4.039.109,10.556,10.556,0,0,0,2.262-.109,2.5,2.5,0,0,1,1.131.109,8.337,8.337,0,0,0,2.316-.054c0.364-.072.852,0.154,1.292,0.054a2.144,2.144,0,0,1,.97-0.109,0.856,0.856,0,0,0,.484.109,3.384,3.384,0,0,1,1.778-.271,3.116,3.116,0,0,1,.269.271H896c2.134,0,3.735-.424,5.439,0h2.8a1.727,1.727,0,0,1,.862-0.109,8.777,8.777,0,0,0,2.746.109,4.414,4.414,0,0,1,1.185-.163,1.909,1.909,0,0,1,.162.163h2.639c0.092-.031.213-0.185,0.323-0.217,0.727-.212,1.847.431,2.854,0.217a16.684,16.684,0,0,1,2.639,0h0.754a4.209,4.209,0,0,1,1.993,0l1.023-.054a11.653,11.653,0,0,0,3.285-.055,1.908,1.908,0,0,1,.592.109,2.638,2.638,0,0,0,.916-0.054l1.239,0.054c0.237-.052.728,0.031,1.023-0.054,0.22-.065.433-0.314,0.646-0.38a1.109,1.109,0,0,1,.754.217,5.6,5.6,0,0,1,.808-0.054c0.125,0.035.3,0.182,0.431,0.217a0.982,0.982,0,0,0,.862-0.325,1.2,1.2,0,0,1,1.077.379c0.646,0.229,1.023-.372,1.669-0.217a13.747,13.747,0,0,0,2.908.217h0.97a2.861,2.861,0,0,1,.754-0.163,4.446,4.446,0,0,0,1.831.163,4.523,4.523,0,0,1,2.316-.271c0.16,0.049.352,0.226,0.484,0.271h7.379c0.278-.089.7-0.348,0.969-0.434a12.382,12.382,0,0,1,2.585.434C956.059,288.712,957.158,288.189,958.315,288.188Z" transform="translate(-859 -288)"/>
</svg>
