<svg width="40" height="40" viewBox="0 0 40 40" fill="none" xmlns="http://www.w3.org/2000/svg">
<rect width="40" height="40" fill="#FFF9F3"/>
<path d="M20.8189 12C21.7189 12.0024 22.1757 12.0072 22.5701 12.0184L22.7253 12.024C22.9045 12.0304 23.0813 12.0384 23.2949 12.048C24.1461 12.088 24.7269 12.2224 25.2365 12.42C25.7645 12.6232 26.2093 12.8984 26.6541 13.3424C27.0611 13.7422 27.3759 14.226 27.5765 14.76C27.7741 15.2696 27.9085 15.8504 27.9485 16.7024C27.9581 16.9152 27.9661 17.092 27.9725 17.272L27.9773 17.4272C27.9893 17.8208 27.9941 18.2776 27.9957 19.1776L27.9965 19.7744V20.8224C27.9985 21.4059 27.9924 21.9894 27.9781 22.5728L27.9733 22.728C27.9669 22.908 27.9589 23.0848 27.9493 23.2976C27.9093 24.1496 27.7733 24.7296 27.5765 25.24C27.3759 25.774 27.0611 26.2578 26.6541 26.6576C26.2544 27.0646 25.7706 27.3793 25.2365 27.58C24.7269 27.7776 24.1461 27.912 23.2949 27.952L22.7253 27.976L22.5701 27.9808C22.1757 27.992 21.7189 27.9976 20.8189 27.9992L20.2221 28H19.1749C18.5912 28.0021 18.0074 27.9959 17.4237 27.9816L17.2685 27.9768C17.0786 27.9696 16.8888 27.9613 16.6989 27.952C15.8477 27.912 15.2669 27.7776 14.7565 27.58C14.2228 27.3792 13.7393 27.0645 13.3397 26.6576C12.9325 26.2579 12.6174 25.7741 12.4165 25.24C12.2189 24.7304 12.0845 24.1496 12.0445 23.2976L12.0205 22.728L12.0165 22.5728C12.0018 21.9895 11.9951 21.4059 11.9965 20.8224V19.1776C11.9943 18.5941 12.0002 18.0106 12.0141 17.4272L12.0197 17.272C12.0261 17.092 12.0341 16.9152 12.0437 16.7024C12.0837 15.8504 12.2181 15.2704 12.4157 14.76C12.6171 14.2258 12.9327 13.7419 13.3405 13.3424C13.7399 12.9356 14.2231 12.6209 14.7565 12.42C15.2669 12.2224 15.8469 12.088 16.6989 12.048C16.9117 12.0384 17.0893 12.0304 17.2685 12.024L17.4237 12.0192C18.0071 12.005 18.5906 11.9989 19.1741 12.0008L20.8189 12ZM19.9965 16C18.9357 16 17.9183 16.4214 17.1681 17.1716C16.418 17.9217 15.9965 18.9391 15.9965 20C15.9965 21.0609 16.418 22.0783 17.1681 22.8284C17.9183 23.5786 18.9357 24 19.9965 24C21.0574 24 22.0748 23.5786 22.825 22.8284C23.5751 22.0783 23.9965 21.0609 23.9965 20C23.9965 18.9391 23.5751 17.9217 22.825 17.1716C22.0748 16.4214 21.0574 16 19.9965 16ZM19.9965 17.6C20.3117 17.5999 20.6238 17.662 20.915 17.7825C21.2062 17.9031 21.4708 18.0798 21.6937 18.3027C21.9166 18.5255 22.0934 18.79 22.2141 19.0812C22.3348 19.3724 22.3969 19.6844 22.3969 19.9996C22.397 20.3148 22.335 20.6269 22.2144 20.9181C22.0938 21.2093 21.9171 21.4739 21.6943 21.6968C21.4715 21.9197 21.2069 22.0965 20.9158 22.2172C20.6246 22.3378 20.3125 22.3999 19.9973 22.4C19.3608 22.4 18.7504 22.1471 18.3003 21.6971C17.8502 21.247 17.5973 20.6365 17.5973 20C17.5973 19.3635 17.8502 18.753 18.3003 18.3029C18.7504 17.8529 19.3608 17.6 19.9973 17.6M24.1973 14.8C23.9321 14.8 23.6778 14.9054 23.4902 15.0929C23.3027 15.2804 23.1973 15.5348 23.1973 15.8C23.1973 16.0652 23.3027 16.3196 23.4902 16.5071C23.6778 16.6946 23.9321 16.8 24.1973 16.8C24.4626 16.8 24.7169 16.6946 24.9045 16.5071C25.092 16.3196 25.1973 16.0652 25.1973 15.8C25.1973 15.5348 25.092 15.2804 24.9045 15.0929C24.7169 14.9054 24.4626 14.8 24.1973 14.8Z" fill="#80684A"/>
</svg>
