<svg width="40" height="40" viewBox="0 0 40 40" fill="none" xmlns="http://www.w3.org/2000/svg">
<rect width="40" height="40" fill="#FFF9F3"/>
<path fill-rule="evenodd" clip-rule="evenodd" d="M26.2221 13.9455C26.4198 13.8623 26.6362 13.8336 26.8487 13.8624C27.0613 13.8912 27.2622 13.9765 27.4307 14.1093C27.5991 14.2421 27.7288 14.4176 27.8064 14.6176C27.884 14.8176 27.9065 15.0347 27.8717 15.2463L26.0573 26.2519C25.8813 27.3135 24.7165 27.9223 23.7429 27.3935C22.9285 26.9511 21.7189 26.2695 20.6309 25.5583C20.0869 25.2023 18.4205 24.0623 18.6253 23.2511C18.8013 22.5575 21.6013 19.9511 23.2013 18.4015C23.8293 17.7927 23.5429 17.4415 22.8013 18.0015C20.9597 19.3919 18.0029 21.5063 17.0253 22.1015C16.1629 22.6263 15.7133 22.7159 15.1757 22.6263C14.1949 22.4631 13.2853 22.2103 12.5429 21.9023C11.5397 21.4863 11.5885 20.1071 12.5421 19.7055L26.2221 13.9455Z" fill="#80684A"/>
</svg>
