<svg width="290" height="390" viewBox="0 0 290 390" fill="none" xmlns="http://www.w3.org/2000/svg">
<path d="M290 390H0V0H290V390ZM199.777 50C190.06 50.0448 179.898 57.9406 170.376 72.8389C169.796 70.5677 167.742 68.9434 165.342 68.9434C162.491 68.9435 160.174 71.2289 160.143 74.0479L160.112 74.0127C160.077 73.9718 160.024 73.9522 159.971 73.9639L155.118 75.0107L149.813 68.1191C149.78 68.0762 149.722 68.0547 149.667 68.0645L110.028 76.1709V75.5977C110.028 74.354 108.956 73.301 107.688 73.3008C106.778 73.3008 105.955 73.8257 105.555 74.6484H104.801C104.41 73.8628 103.602 73.3574 102.708 73.3574C101.814 73.3575 101.029 73.8589 100.633 74.6484H99.7471C99.3723 73.8395 98.5381 73.3009 97.6309 73.3008C96.467 73.3008 95.5017 74.1339 95.332 75.2314L60.1416 76.1826C60.0631 76.1848 60.0002 76.2485 60 76.3262V86.5088C60 86.5477 60.0155 86.585 60.043 86.6123C60.0706 86.6396 60.109 86.6533 60.1484 86.6533L67.7979 86.4951C68.4548 87.5108 68.5986 88.0415 68.5986 88.3066V88.3359C68.5808 88.6772 68.3027 89.309 68.0068 89.9795L67.96 90.0859C67.4214 91.3317 66.6855 93.0383 66.6855 94.7461C66.6855 94.9136 66.6854 95.0736 66.7051 95.2256C66.9004 97.5589 67.427 97.7855 68.9932 98.4561L69.0293 98.4717C69.6012 98.7114 70.2424 99.0056 70.9307 99.3447C73.5244 100.695 74.3361 99.6001 75.0537 98.6318L75.0557 98.6289C75.2706 98.3326 75.5408 97.9643 75.8682 97.7285C76.1699 97.5375 76.3433 97.2953 76.3887 97.0107C76.4765 96.4693 76.0969 95.974 75.6152 95.3457L75.6035 95.3311C75.063 94.6253 74.3253 93.6597 74.2129 92.3535C74.0748 90.6987 74.1519 90.6873 75.1045 90.5996L75.2012 90.5898C75.5898 90.5547 76.0754 90.5095 76.6436 90.3516C77.6077 90.0964 77.8825 90.4816 78.2275 90.9668V90.9678L78.2285 90.9697C78.5223 91.4043 78.9231 91.9966 79.8428 91.8916C80.3417 91.8351 80.7818 91.6695 81.2295 91.4883L81.2363 91.4854C82.1896 91.0988 82.877 90.8203 83.9023 91.9404C84.8374 92.9678 84.199 94.3988 83.6309 95.6641L83.5986 95.7383C83.2436 96.5726 82.9385 97.2922 83.0352 97.8965C83.2641 99.2589 84.2007 99.2705 85.749 99.2881L85.9033 99.2939L85.9229 99.2949C86.4486 99.3123 87.0429 99.3318 87.7715 99.3818C88.874 99.4636 89.813 99.1538 90.5664 98.4619C91.5587 97.5495 91.9156 96.229 91.957 95.9795L91.9727 95.9326C91.9804 95.9074 91.9824 95.8787 91.9746 95.8535L89.5879 86.6768C89.6786 86.6787 89.7419 86.5654 89.6455 86.5088C89.6259 86.4966 89.6049 86.4868 89.584 86.4766C89.565 86.4673 89.5451 86.4574 89.5264 86.4463L89.4219 86.0488L95.2852 85.9277V86.1367C95.2852 87.4136 96.3369 88.4512 97.627 88.4512C98.9169 88.451 99.9502 87.4135 99.9502 86.1367V86.1113H100.381V86.1934C100.381 87.4702 101.422 88.5068 102.704 88.5068C103.986 88.5068 105.046 87.4683 105.046 86.1934V86.1113H105.344V86.1367C105.344 87.4136 106.395 88.4512 107.686 88.4512C108.975 88.451 110.026 87.4135 110.026 86.1367V85.9844L149.601 91.8936L149.732 91.9111C149.786 91.9189 149.841 91.8954 149.87 91.8525L154.682 85.1387L159.728 85.959C159.795 88.7468 162.097 90.997 164.924 90.9971C167.344 90.9971 169.43 89.3415 169.998 87.0371C172.342 89.1328 174.557 91.535 176.9 94.0811L176.902 94.085C183.351 101.091 190.018 108.336 199.635 108.97C205.101 109.321 208.636 106.572 210.637 104.203C214.369 99.7855 215.912 92.9522 214.489 87.1621C214.51 87.15 214.532 87.14 214.555 87.1299C214.575 87.1206 214.596 87.1107 214.615 87.0996C214.615 87.0996 214.814 87.1972 214.909 87.1387C214.945 87.1171 214.923 86.9512 214.923 86.9512C215.051 86.9005 215.193 86.8602 215.341 86.8213C216.889 87.9247 218.737 88.5107 220.688 88.5107C225.822 88.5105 230 84.382 230 79.3076C230 74.2331 225.822 70.1038 220.688 70.1035C218.904 70.1035 217.174 70.6103 215.677 71.5635C215.257 71.4017 214.806 71.1566 214.366 70.8408C215.398 65.0411 213.892 58.9192 210.428 54.8428C207.715 51.6535 204.032 49.9787 199.777 50ZM197.023 102.184C196.906 102.208 196.786 102.232 196.668 102.256C196.708 102.237 196.72 102.19 196.709 102.148L197.023 102.184ZM195.441 59.1553C199.873 58.5433 202.856 59.161 204.306 60.9951C205.02 61.8978 205.375 63.1112 205.375 64.624C205.375 66.554 204.792 68.9753 203.636 71.8682C202.655 70.5991 201.13 69.8409 199.493 69.8408C196.625 69.8408 194.291 72.1547 194.291 75.001C194.291 75.0944 194.301 75.1781 194.307 75.2695C193.151 74.0652 191.596 73.3425 189.938 73.2568L189.605 73.248C186.027 73.2482 183.116 76.118 183.116 79.6445C183.116 83.1711 186.027 86.0408 189.605 86.041C191.359 86.041 193.018 85.3334 194.249 84.0859C194.253 84.0859 194.258 84.0898 194.264 84.0898C194.279 84.113 194.299 84.1231 194.32 84.1289C194.303 84.3004 194.291 84.478 194.291 84.6631C194.291 87.5093 196.625 89.8232 199.493 89.8232C200.939 89.8231 202.306 89.2304 203.288 88.1973C205.657 93.7728 206.007 97.7012 204.324 99.8691C202.882 101.725 199.893 102.348 195.467 101.73C192.715 100.804 190.207 99.3607 188.01 97.4307C186.756 96.4519 185.528 95.392 184.34 94.3662C184.328 94.3563 184.317 94.3459 184.306 94.3359V94.332C183.795 93.8914 183.283 93.4494 182.769 93.0127C182.315 92.6286 181.863 92.2464 181.409 91.8643C178.032 89.018 174.811 86.2889 172.035 83.0859C172.031 83.0587 172.025 83.0311 172.014 82.9961C171.923 82.7544 171.637 82.5143 171.385 82.3193C170.886 81.7131 170.398 81.0934 169.935 80.4482C173.173 75.9473 177.258 72.5143 181.582 68.8809L181.583 68.8799L182.769 67.8828C183.317 67.4169 183.862 66.9473 184.406 66.4756C185.574 65.4659 186.781 64.4229 188.018 63.4443C190.209 61.5201 192.715 60.0735 195.441 59.1553ZM88.7559 86.624L88.7568 86.626C88.7656 86.6312 88.7747 86.6366 88.7852 86.6436L88.8008 86.7002C88.7854 86.6755 88.7721 86.6507 88.7568 86.626L88.7539 86.624H88.7559ZM86.7793 86.1074C86.7027 86.1211 86.6704 86.2408 86.749 86.2871C86.7955 86.3147 86.844 86.3356 86.8926 86.3564C86.9098 86.3638 86.9272 86.3712 86.9443 86.3789C86.9609 86.3863 86.9778 86.3931 86.9941 86.4014C86.6844 86.3409 86.3799 86.2615 86.0801 86.1445C86.0093 86.1176 85.9697 86.174 85.9697 86.2324C85.9526 86.2207 85.9358 86.2082 85.9189 86.1963L85.9043 86.1855C85.8953 86.1792 85.886 86.1732 85.877 86.167C85.8572 86.1533 85.837 86.1398 85.8164 86.127L86.7793 86.1074ZM87.7598 86.0879H87.7549L87.7568 86.0859L87.7598 86.0879ZM105.046 85.8271V85.8291L105.044 85.8271H105.046ZM90.8271 84.2939C90.8234 84.2939 90.8192 84.2942 90.8154 84.2959L90.8252 84.29L90.8271 84.2939ZM220.688 74.584C223.323 74.5842 225.467 76.7032 225.467 79.3076C225.467 81.912 223.323 84.031 220.688 84.0312C218.052 84.0312 215.907 81.9121 215.907 79.3076C215.907 76.703 218.052 74.584 220.688 74.584ZM196.015 78.8477C196.498 79.2746 197.051 79.6137 197.654 79.834C197.009 80.0718 196.43 80.4384 195.938 80.9023C196.021 80.5046 196.076 80.091 196.076 79.6445C196.076 79.5121 196.065 79.3893 196.057 79.2646C196.122 79.2257 196.1 79.1494 196.049 79.1143C196.041 79.0228 196.028 78.9353 196.015 78.8477ZM213.07 79.9482C213.08 79.9518 213.09 79.9559 213.099 79.9609C213.15 80.0407 213.201 80.1205 213.254 80.2002V80.2021C213.224 80.1638 213.194 80.1261 213.163 80.0889C213.122 80.0392 213.081 79.9897 213.043 79.9375C213.051 79.9421 213.061 79.945 213.07 79.9482ZM95.2734 77.9072H95.2715C95.2719 77.9074 95.2813 77.9132 95.2871 77.917V78.2197C95.224 78.0424 95.1608 77.8629 95.0996 77.6855C95.1568 77.7596 95.2143 77.8332 95.2734 77.9072ZM95.0635 76.5801C95.1327 76.6361 95.2025 76.693 95.2871 76.7422V77.2764C95.2122 77.0307 95.123 76.7867 95.0244 76.5488C95.0374 76.5592 95.0506 76.5696 95.0635 76.5801ZM100.033 76.6699L100.022 76.6572L100.016 76.6484L100.005 76.6348L100.001 76.6309C99.9856 76.6121 99.9693 76.5917 99.9521 76.5703V76.4004C99.9817 76.5115 100.008 76.5997 100.033 76.6699ZM95.2852 76.332C95.2023 76.1606 95.1132 75.9928 95.0186 75.8291C95.0934 75.8894 95.2216 75.8102 95.1611 75.7148L95.1631 75.7168C95.094 75.6115 95.0224 75.5624 94.9336 75.5352L95.2852 75.5254V76.332ZM100.159 75.4082C100.116 75.4141 100.074 75.4416 100.072 75.4961C100.072 75.5083 100.073 75.5196 100.072 75.5303C100.072 75.5394 100.071 75.5482 100.07 75.5566C100.069 75.5727 100.068 75.588 100.068 75.6035C100.053 75.5837 100.038 75.563 100.023 75.543H100.022C99.9978 75.51 99.9732 75.4767 99.9463 75.4453C99.9463 75.4396 99.9468 75.4337 99.9463 75.4277C99.9458 75.4217 99.9443 75.415 99.9424 75.4082H100.159ZM105.352 75.4082C105.351 75.4167 105.35 75.4253 105.35 75.4336C105.349 75.443 105.348 75.4525 105.348 75.4619C105.347 75.4704 105.348 75.4795 105.348 75.4883C105.342 75.4415 105.308 75.4199 105.271 75.4082H105.352ZM184.207 66.2646C183.984 66.4576 183.761 66.6469 183.538 66.8379C183.491 66.8515 183.449 66.877 183.403 66.8926C183.425 66.8439 183.417 66.7783 183.351 66.7568C183.284 66.7334 183.617 66.4814 183.637 66.4717C183.737 66.4152 183.84 66.3602 183.94 66.3037C184.144 66.1926 184.345 66.0798 184.548 65.9688C184.552 65.9667 184.555 65.9642 184.559 65.9619C184.441 66.0631 184.323 66.1643 184.207 66.2646ZM191.004 60.8984C191.02 60.8746 191.024 60.8441 191.017 60.8164C191.133 60.7755 191.247 60.7323 191.361 60.6875C191.242 60.7567 191.122 60.827 191.004 60.8984Z" fill="#FFF9F3"/>
</svg>
