<svg 
 xmlns="http://www.w3.org/2000/svg"
 xmlns:xlink="http://www.w3.org/1999/xlink"
 width="1161px" height="1832px">
<path fill-rule="evenodd"  fill="rgb(255, 255, 255)"
 d="M-0.000,0.303 C386.849,0.278 773.814,0.253 1160.663,0.227 C1160.663,610.571 1160.663,1221.099 1160.663,1831.443 C773.814,1831.468 386.849,1831.493 0.000,1831.518 C0.000,1221.174 -0.000,610.647 -0.000,0.303 ZM520.297,181.588 C519.071,185.657 519.592,182.662 517.295,184.593 C517.295,184.927 517.295,185.261 517.295,185.595 C516.962,185.595 516.628,185.595 516.295,185.595 C516.295,186.263 516.295,186.931 516.295,187.598 C515.294,187.932 514.294,188.266 513.293,188.600 C512.960,189.602 512.626,190.604 512.293,191.606 C510.959,192.607 509.624,193.609 508.290,194.611 C508.290,195.279 508.290,195.947 508.290,196.615 C507.290,197.283 506.289,197.951 505.289,198.618 C504.955,199.954 504.621,201.290 504.288,202.626 C503.287,203.293 502.287,203.961 501.286,204.629 C498.285,212.309 495.283,219.991 492.281,227.670 C492.281,230.008 492.281,232.345 492.281,234.683 C491.223,238.425 489.826,253.562 491.281,258.725 C491.614,258.725 491.948,258.725 492.281,258.725 C492.615,262.731 492.948,266.739 493.282,270.746 C493.615,270.746 493.949,270.746 494.282,270.746 C494.282,271.414 494.282,272.082 494.282,272.749 C494.616,272.749 494.949,272.749 495.283,272.749 C495.616,274.753 495.950,276.756 496.283,278.760 C496.617,278.760 496.950,278.760 497.284,278.760 C497.617,280.095 497.951,281.431 498.285,282.767 C498.618,282.767 498.952,282.767 499.285,282.767 C499.619,284.436 499.952,286.106 500.286,287.775 C501.286,288.443 502.287,289.111 503.287,289.779 C503.954,291.782 504.622,293.786 505.289,295.789 C505.956,296.123 506.623,296.457 507.290,296.791 C510.091,299.797 513.238,303.151 514.294,307.810 C509.291,307.810 504.287,307.810 499.285,307.811 C490.287,310.515 482.135,317.037 479.274,325.844 C479.274,328.181 479.274,330.519 479.274,332.856 C478.940,332.856 478.607,332.856 478.273,332.856 C477.940,338.866 477.606,344.878 477.273,350.888 C477.273,354.227 477.273,357.566 477.273,360.905 C476.939,360.905 476.605,360.905 476.272,360.905 C476.272,368.919 476.272,376.934 476.272,384.948 C475.938,384.948 475.605,384.948 475.271,384.948 C475.271,389.956 475.271,394.966 475.271,399.974 C475.271,399.974 474.436,400.075 474.271,401.978 C474.271,405.650 474.271,409.324 474.271,412.997 C473.937,412.997 473.604,412.997 473.270,412.997 C473.270,418.005 473.270,423.015 473.270,428.023 C472.937,428.023 472.603,428.023 472.270,428.023 C470.576,434.091 472.919,444.152 471.269,450.062 C471.269,456.072 471.269,462.084 471.269,468.094 C470.936,468.094 470.602,468.094 470.269,468.094 C469.602,478.778 468.934,489.466 468.267,500.150 C468.267,506.160 468.267,512.172 468.267,518.182 C467.934,518.182 467.600,518.182 467.267,518.182 C467.267,523.190 467.267,528.200 467.267,533.208 C467.267,533.208 466.432,533.308 466.266,535.212 C466.266,538.885 466.266,542.559 466.266,546.231 C465.933,546.231 465.599,546.231 465.266,546.231 C465.266,552.241 465.266,558.253 465.266,564.263 C464.932,564.263 464.599,564.263 464.265,564.263 C464.265,571.275 464.265,578.288 464.265,585.300 C463.932,585.300 463.598,585.300 463.265,585.300 C463.265,590.642 463.265,595.986 463.265,601.328 C462.931,601.328 462.597,601.328 462.264,601.328 C461.931,607.672 461.597,614.018 461.263,620.362 C461.597,620.362 461.931,620.362 462.264,620.362 C462.264,621.363 462.264,622.365 462.264,623.367 C462.598,623.367 462.931,623.367 463.265,623.367 C463.265,624.369 463.265,625.371 463.265,626.372 C463.598,626.372 463.932,626.372 464.265,626.372 C464.265,627.040 464.265,627.708 464.265,628.376 C464.599,628.376 464.932,628.376 465.266,628.376 C465.266,629.043 465.266,629.711 465.266,630.379 C465.599,630.379 465.933,630.379 466.266,630.379 C467.688,632.168 468.559,632.767 469.268,635.388 C470.268,635.721 471.269,636.055 472.270,636.389 C472.270,636.723 472.270,637.057 472.270,637.391 C472.937,637.391 473.604,637.391 474.271,637.391 C474.271,637.725 474.271,638.059 474.271,638.393 C476.272,639.060 478.273,639.728 480.274,640.396 C480.274,640.730 480.274,641.064 480.274,641.398 C513.290,641.395 546.315,641.393 579.331,641.391 C613.013,641.389 646.706,641.387 680.389,641.384 C680.389,641.051 680.389,640.717 680.389,640.383 C682.390,639.715 684.391,639.047 686.392,638.379 C686.392,638.045 686.392,637.711 686.392,637.377 C687.059,637.377 687.726,637.377 688.393,637.377 C688.393,637.043 688.393,636.709 688.393,636.375 C689.394,636.041 690.394,635.707 691.395,635.373 C692.125,632.755 692.970,632.159 694.397,630.364 C694.730,630.364 695.064,630.364 695.397,630.364 C696.731,626.357 698.066,622.349 699.399,618.343 C699.066,612.667 698.732,606.989 698.399,601.313 C698.065,601.313 697.732,601.313 697.398,601.313 C697.398,596.639 697.398,591.963 697.398,587.288 C697.065,587.288 696.731,587.288 696.398,587.288 C696.398,578.941 696.398,570.592 696.398,562.244 C696.398,561.911 696.398,561.577 696.398,561.243 C696.064,561.243 695.731,561.243 695.397,561.243 C695.397,556.234 695.397,551.225 695.397,546.216 C695.064,546.216 694.730,546.216 694.397,546.216 C694.397,542.878 694.397,539.538 694.397,536.199 C694.063,536.199 693.730,536.199 693.396,536.199 C693.396,531.191 693.396,526.181 693.396,521.173 C693.063,521.173 692.729,521.173 692.395,521.173 C692.395,512.825 692.395,504.476 692.395,496.129 C692.395,495.127 692.395,494.125 692.395,493.123 C692.062,493.123 691.728,493.123 691.395,493.123 C691.395,488.115 691.395,483.105 691.395,478.097 C691.061,478.097 690.728,478.097 690.394,478.097 C690.394,474.758 690.394,471.418 690.394,468.080 C690.061,468.080 689.727,468.080 689.394,468.080 C689.394,463.071 689.394,458.061 689.394,453.053 C689.060,453.053 688.727,453.053 688.393,453.053 C688.393,444.706 688.393,436.356 688.393,428.009 C688.060,428.009 687.726,428.009 687.393,428.009 C687.393,423.001 687.393,417.991 687.393,412.983 C687.059,412.983 686.725,412.983 686.392,412.983 C686.392,409.310 686.392,405.636 686.392,401.964 C686.059,401.964 685.725,401.964 685.391,401.964 C685.391,396.288 685.391,390.610 685.391,384.934 C685.058,384.934 684.724,384.934 684.391,384.934 C684.391,376.253 684.391,367.569 684.391,358.888 C684.057,358.888 683.724,358.888 683.390,358.888 C683.390,354.214 683.390,349.538 683.390,344.864 C683.057,344.864 682.723,344.864 682.390,344.864 C682.390,340.857 682.390,336.849 682.390,332.843 C682.056,332.843 681.723,332.843 681.389,332.843 C681.389,330.505 681.389,328.168 681.389,325.830 C681.056,325.830 680.722,325.830 680.389,325.830 C680.389,324.495 680.389,323.159 680.389,321.823 C679.487,319.680 676.937,318.379 675.386,316.815 C673.718,314.812 672.050,312.808 670.383,310.805 C665.294,307.413 654.940,307.710 646.369,307.801 C647.942,300.861 654.954,296.196 658.376,290.770 C658.709,289.435 659.043,288.099 659.377,286.763 C659.710,286.763 660.044,286.763 660.377,286.763 C660.377,286.095 660.377,285.427 660.377,284.760 C660.711,284.760 661.044,284.760 661.378,284.760 C662.045,282.756 662.712,280.752 663.379,278.749 C663.712,278.749 664.046,278.749 664.379,278.749 C664.379,277.747 664.379,276.745 664.379,275.744 C664.713,275.743 665.046,275.743 665.380,275.743 C665.380,274.742 665.380,273.740 665.380,272.738 C665.713,272.738 666.047,272.738 666.381,272.738 C666.381,272.070 666.381,271.402 666.381,270.735 C666.714,270.735 667.048,270.735 667.381,270.735 C667.381,269.399 667.381,268.063 667.381,266.727 C669.693,259.611 670.752,242.996 668.382,234.671 C668.048,230.998 667.715,227.325 667.381,223.652 C667.048,223.652 666.714,223.652 666.381,223.652 C666.047,221.649 665.713,219.645 665.380,217.641 C665.046,217.641 664.713,217.641 664.379,217.642 C663.712,215.638 663.045,213.634 662.378,211.631 C662.045,211.631 661.711,211.631 661.378,211.631 C661.378,210.963 661.378,210.295 661.378,209.628 C661.044,209.628 660.711,209.628 660.377,209.628 C660.377,208.960 660.377,208.292 660.377,207.624 C660.044,207.624 659.710,207.624 659.377,207.624 C659.043,206.289 658.709,204.953 658.376,203.617 C657.709,203.283 657.042,202.949 656.375,202.616 C656.041,201.280 655.708,199.944 655.374,198.609 C654.374,197.941 653.373,197.273 652.373,196.605 C652.373,195.938 652.373,195.270 652.373,194.602 C651.039,193.600 649.704,192.598 648.370,191.597 C648.037,190.595 647.703,189.593 647.370,188.592 C646.369,188.258 645.368,187.924 644.368,187.590 C644.368,186.922 644.368,186.254 644.368,185.587 C644.034,185.587 643.701,185.587 643.367,185.587 C643.367,185.253 643.367,184.919 643.367,184.585 C641.063,182.649 641.585,185.651 640.366,181.580 C639.365,181.246 638.364,180.912 637.364,180.578 C637.364,180.244 637.364,179.910 637.364,179.576 C636.364,179.243 635.363,178.909 634.362,178.575 C634.029,177.907 633.695,177.239 633.362,176.571 C632.695,176.571 632.028,176.572 631.361,176.572 C631.027,175.904 630.693,175.236 630.360,174.568 C629.693,174.568 629.026,174.568 628.359,174.568 C628.025,173.900 627.692,173.233 627.358,172.565 C626.358,172.565 625.357,172.565 624.357,172.565 C624.023,171.897 623.689,171.229 623.356,170.562 C622.689,170.562 622.022,170.562 621.355,170.562 C621.355,170.228 621.355,169.894 621.355,169.560 C620.688,169.560 620.021,169.560 619.354,169.560 C619.354,169.226 619.354,168.892 619.354,168.558 C618.353,168.558 617.352,168.558 616.352,168.558 C616.352,168.225 616.352,167.891 616.352,167.557 C615.018,167.223 613.684,166.889 612.350,166.555 C612.350,166.221 612.350,165.887 612.350,165.553 C608.348,164.886 604.345,164.218 600.343,163.551 C600.343,163.217 600.343,162.883 600.343,162.549 C599.342,162.549 598.342,162.549 597.341,162.549 C597.341,162.215 597.341,161.881 597.341,161.547 C595.674,161.547 594.006,161.548 592.338,161.548 C592.338,161.214 592.338,160.880 592.338,160.546 C587.412,159.124 572.836,160.530 569.325,161.549 C567.324,161.549 565.323,161.549 563.322,161.550 C563.322,161.883 563.322,162.217 563.322,162.551 C561.988,162.551 560.653,162.552 559.319,162.552 C559.319,162.886 559.319,163.219 559.319,163.553 C558.319,163.553 557.318,163.554 556.318,163.554 C556.318,163.887 556.318,164.221 556.318,164.555 C553.650,164.889 550.981,165.224 548.313,165.558 C548.313,165.892 548.313,166.225 548.313,166.559 C546.979,166.893 545.645,167.227 544.311,167.561 C544.311,167.895 544.311,168.229 544.311,168.563 C543.310,168.563 542.310,168.563 541.309,168.563 C541.309,168.897 541.309,169.231 541.309,169.565 C540.642,169.565 539.975,169.565 539.308,169.565 C539.308,169.899 539.308,170.233 539.308,170.567 C538.641,170.567 537.974,170.567 537.307,170.567 C536.973,171.235 536.640,171.903 536.306,172.571 C535.306,172.571 534.305,172.571 533.305,172.571 C532.638,173.573 531.970,174.575 531.303,175.576 C529.969,175.910 528.635,176.244 527.301,176.578 C526.968,177.246 526.634,177.914 526.301,178.582 C525.300,178.916 524.299,179.250 523.299,179.584 C523.299,179.918 523.299,180.252 523.299,180.586 C522.298,180.920 521.298,181.254 520.297,181.588 Z"/>
</svg>